<svg xmlns="http://www.w3.org/2000/svg" xmlns:xlink="http://www.w3.org/1999/xlink" version="1.1" x="0px" y="0px" viewBox="0 0 425.2 531.5" enable-background="new 0 0 425.2 425.2" xml:space="preserve"><g><g><path fill="#000000" d="M270.104,231.57l-5.656-5.656l34.557-34.56l-34.557-34.557l5.656-5.657l40.213,40.214L270.104,231.57z     M214.599,231.57l-40.213-40.216l40.213-40.214l5.656,5.657l-34.557,34.557l34.557,34.56L214.599,231.57z"/></g><g><g><path fill="#000000" stroke="#010202" stroke-width="8" stroke-miterlimit="10" d="M177.999,48.63"/></g><g><path fill="#000000" d="M89.951,246.911l-7.26-3.361l80.569-174.039L109.002,44.21l14.143-30.332     c1.726-3.716,4.798-6.539,8.647-7.943c3.853-1.406,8.029-1.223,11.759,0.515l34.158,15.93     c7.657,3.587,10.988,12.737,7.432,20.399l-1.739,3.729l-7.25-3.381l1.736-3.723c1.702-3.669,0.104-8.058-3.566-9.777     L140.17,13.701c-1.79-0.833-3.79-0.922-5.637-0.25c-1.84,0.671-3.309,2.022-4.136,3.804L119.633,40.34l54.239,25.292     L89.951,246.911z"/></g><g><polygon fill="#000000" points="22.82,309.939 6.296,264.493 6.996,262.991 100.071,63.464 107.321,66.846 14.946,264.872      27.605,299.688 62.418,287.031 70.078,270.603 42.115,257.821 45.441,250.546 80.734,266.677 68.268,293.416    "/></g><g><path fill="#000000" d="M413.296,286.415H99.246v-8h306.05V130.647c0-14.531-11.822-26.354-26.354-26.354H185.914v-8h193.028     c18.942,0,34.354,15.411,34.354,34.354V286.415z"/></g><g><path fill="#000000" d="M307.059,407.83H177.644v-20.388l26.881-40.319h-98.764c-17.408,0-32.076-13.038-34.118-30.329     l7.945-0.938c1.566,13.264,12.818,23.267,26.173,23.267h113.713l-33.83,50.741v9.966h113.415v-9.966l-33.827-50.741h113.711     c14.531,0,26.354-11.822,26.354-26.354v-4.902h8v4.902c0,18.942-15.411,34.354-34.354,34.354h-98.764l26.88,40.319V407.83z"/></g></g><g><rect x="95.194" y="93.006" transform="matrix(0.9063 0.4226 -0.4226 0.9063 72.01 -28.0182)" fill="#000000" width="8" height="110.774"/></g></g></svg>