<svg xmlns="http://www.w3.org/2000/svg" xmlns:xlink="http://www.w3.org/1999/xlink" version="1.1" x="0px" y="0px" viewBox="0 0 425.2 531.5" enable-background="new 0 0 425.2 425.2" xml:space="preserve"><g><g><rect x="363.607" y="295.441" fill="#000000" width="8" height="32.647"/></g><g><path fill="#000000" stroke="#010202" stroke-width="8" stroke-miterlimit="10" d="M205.707,250.077"/></g><g><path fill="#000000" stroke="#010202" stroke-width="8" stroke-miterlimit="10" d="M24.489,250.077"/></g><g><path fill="#000000" d="M201.599,392.792h-173c-8.822,0-16-7.178-16-16V291.34h8v85.452c0,4.411,3.589,8,8,8h173    c4.411,0,8-3.589,8-8v-98.19l-83.364,65.862c-3.001,2.911-6.945,4.512-11.136,4.512c-4.273,0-8.292-1.665-11.314-4.688    l-89.563-89.559l89.563-89.604c6.238-6.239,16.39-6.239,22.628-0.001l91.348,88.162l-16.148,0.053H65.823v-8h132.183    l-77.199-74.508c-3.171-3.168-8.246-3.17-11.365-0.049l-83.908,83.945l83.908,83.904c1.512,1.512,3.521,2.344,5.657,2.344    s4.146-0.832,5.656-2.344l0.35-0.311l96.494-76.235v114.706C217.599,385.614,210.421,392.792,201.599,392.792z"/></g><g><path fill="#000000" d="M398.396,349.153H239.374v-8h159.021c4.411,0,8-3.589,8-8v-44.117c0-4.411-3.589-8-8-8H239.374v-8h159.021    c8.822,0,16,7.178,16,16v44.117C414.396,341.976,407.218,349.153,398.396,349.153z"/></g><g><g><path fill="#000000" d="M397.1,152.168H46.118c-8.822,0-16-7.178-16-16V92.051c0-8.822,7.178-16,16-16H397.1     c8.822,0,16,7.178,16,16v44.117C413.1,144.99,405.922,152.168,397.1,152.168z M46.118,84.051c-4.411,0-8,3.589-8,8v44.117     c0,4.411,3.589,8,8,8H397.1c4.411,0,8-3.589,8-8V92.051c0-4.411-3.589-8-8-8H46.118z"/></g><g><rect x="71.097" y="110.109" fill="#000000" width="188.038" height="8"/></g><g><path fill="#000000" stroke="#010202" stroke-width="8" stroke-miterlimit="10" d="M310.612,107.371"/></g><g><polygon fill="#000000" points="371.61,130.488 310.612,130.488 310.612,122.488 363.61,122.488 363.61,104.294 310.612,104.294      310.612,96.294 371.61,96.294    "/></g></g><g><g><path fill="#000000" d="M38.115,212.666h-8v-19.609c0-8.822,7.178-16,16-16h18.707v8H46.115c-4.411,0-8,3.589-8,8V212.666z"/></g></g><g><path fill="#000000" d="M397.097,253.174H241.71v-8h155.387c4.411,0,8-3.589,8-8v-44.117c0-4.411-3.589-8-8-8H180.469    l28.955,26.058h49.708v8h-52.778l-46.734-42.058h237.478c8.822,0,16,7.178,16,16v44.117    C413.097,245.996,405.919,253.174,397.097,253.174z"/></g><g><path fill="#000000" stroke="#010202" stroke-width="8" stroke-miterlimit="10" d="M310.609,207.334"/></g><g><polygon fill="#000000" points="371.607,231.494 310.609,231.494 310.609,223.494 363.607,223.494 363.607,205.3 310.609,205.3     310.609,197.3 371.607,197.3   "/></g><g><rect x="343.596" y="295.441" fill="#000000" width="8" height="32.647"/></g><g><rect x="323.584" y="295.441" fill="#000000" width="8" height="32.647"/></g><g><rect x="303.572" y="295.441" fill="#000000" width="8" height="32.647"/></g><g><rect x="283.561" y="295.441" fill="#000000" width="8" height="32.647"/></g><g><rect x="263.549" y="295.441" fill="#000000" width="8" height="32.647"/></g></g></svg>