<svg xmlns="http://www.w3.org/2000/svg" xmlns:xlink="http://www.w3.org/1999/xlink" preserveAspectRatio="xMidYMid" width="120" height="119.69" viewBox="0 0 120 119.69">
  <defs>
    <style>
      .cls-1 {
        fill: #de4f4f;
        fill-rule: evenodd;
      }
    </style>
  </defs>
  <path d="M118.489,67.761 L100.547,67.761 C100.182,69.600 99.720,71.420 99.109,73.191 L114.629,82.129 C115.356,82.548 115.605,83.474 115.186,84.199 L108.754,95.310 C108.552,95.658 108.220,95.912 107.831,96.016 C107.702,96.050 107.570,96.068 107.438,96.068 C107.174,96.068 106.912,95.998 106.679,95.865 L91.141,86.916 C89.905,88.323 88.593,89.670 87.175,90.902 L96.135,106.382 C96.337,106.729 96.390,107.144 96.286,107.531 C96.182,107.919 95.927,108.250 95.579,108.452 L84.439,114.867 C84.206,115.000 83.943,115.070 83.679,115.070 C83.547,115.070 83.415,115.052 83.286,115.018 C82.898,114.914 82.565,114.660 82.363,114.312 L73.393,98.813 C71.616,99.417 69.805,99.928 67.960,100.287 L67.960,118.162 C67.960,118.999 67.281,119.677 66.441,119.677 L53.578,119.677 C52.738,119.677 52.059,118.999 52.059,118.162 L52.059,100.265 C50.219,99.902 48.394,99.441 46.616,98.831 L43.665,103.929 C43.665,103.930 43.665,103.931 43.664,103.932 C43.664,103.933 43.663,103.933 43.662,103.935 L37.655,114.312 C37.454,114.660 37.121,114.914 36.733,115.018 C36.604,115.052 36.472,115.070 36.340,115.070 C36.076,115.070 35.813,115.000 35.580,114.867 L24.440,108.452 C24.092,108.250 23.837,107.919 23.733,107.531 C23.629,107.144 23.682,106.729 23.884,106.382 L32.856,90.883 C31.445,89.651 30.095,88.342 28.860,86.927 L13.340,95.865 C13.108,95.998 12.845,96.068 12.581,96.068 C12.449,96.068 12.317,96.050 12.188,96.016 C11.799,95.912 11.467,95.658 11.265,95.310 L4.833,84.199 C4.632,83.851 4.578,83.437 4.682,83.049 C4.786,82.662 5.041,82.330 5.390,82.129 L20.928,73.181 C20.324,71.408 19.811,69.601 19.450,67.761 L1.530,67.761 C0.690,67.761 0.011,67.084 0.011,66.246 L0.011,53.417 C0.011,52.579 0.690,51.902 1.530,51.902 L19.472,51.902 C19.837,50.068 20.298,48.247 20.909,46.472 L5.390,37.536 C5.041,37.334 4.786,37.003 4.682,36.615 C4.578,36.228 4.632,35.813 4.833,35.466 L11.265,24.354 C11.467,24.007 11.799,23.752 12.188,23.649 C12.574,23.546 12.992,23.600 13.340,23.800 L28.879,32.748 C30.115,31.339 31.428,29.993 32.845,28.763 L23.884,13.281 C23.682,12.934 23.629,12.519 23.733,12.132 C23.837,11.744 24.092,11.413 24.440,11.212 L35.580,4.798 C36.301,4.379 37.234,4.625 37.655,5.352 L46.627,20.851 C48.401,20.249 50.211,19.738 52.059,19.378 L52.059,1.503 C52.059,0.665 52.738,-0.012 53.578,-0.012 L66.441,-0.012 C67.281,-0.012 67.960,0.665 67.960,1.503 L67.960,19.374 C69.803,19.734 71.614,20.248 73.390,20.854 L82.363,5.352 C82.782,4.628 83.712,4.379 84.439,4.798 L95.579,11.212 C95.927,11.413 96.182,11.744 96.286,12.132 C96.390,12.519 96.337,12.934 96.135,13.281 L87.164,28.781 C88.576,30.015 89.926,31.324 91.160,32.737 L106.679,23.800 C107.027,23.600 107.444,23.546 107.831,23.649 C108.220,23.752 108.552,24.007 108.754,24.354 L115.186,35.466 C115.605,36.191 115.356,37.117 114.629,37.536 L99.091,46.484 C99.696,48.256 100.208,50.063 100.568,51.902 L118.489,51.902 C119.329,51.902 120.008,52.579 120.008,53.417 L120.008,66.246 C120.008,67.084 119.329,67.761 118.489,67.761 ZM106.882,92.483 L111.795,83.996 L93.585,73.509 L88.672,81.994 L106.882,92.483 ZM84.235,111.485 L92.744,106.584 L82.230,88.422 L73.722,93.320 L84.235,111.485 ZM55.097,116.647 L64.922,116.647 L64.922,95.672 L55.097,95.672 L55.097,116.647 ZM46.297,93.320 L37.789,88.422 L33.297,96.182 L41.795,101.098 L46.297,93.320 ZM31.777,98.807 L27.275,106.584 L35.783,111.485 L40.276,103.723 L31.777,98.807 ZM8.224,83.996 L13.137,92.483 L31.347,81.994 L26.436,73.509 L8.224,83.996 ZM3.049,54.932 L3.049,64.731 L24.077,64.731 L24.077,54.932 L3.049,54.932 ZM13.137,27.182 L8.224,35.669 L26.436,46.155 L31.347,37.669 L13.137,27.182 ZM35.783,8.180 L27.275,13.079 L31.768,20.840 L40.285,15.957 L35.783,8.180 ZM41.805,18.582 L33.287,23.465 L37.789,31.243 L46.297,26.343 L41.805,18.582 ZM64.922,3.018 L55.097,3.018 L55.097,23.992 L64.922,23.992 L64.922,3.018 ZM92.744,13.079 L84.235,8.180 L73.722,26.343 L82.230,31.243 L92.744,13.079 ZM85.611,31.463 L84.102,34.070 C83.900,34.418 83.568,34.673 83.180,34.776 C83.050,34.810 82.918,34.828 82.786,34.828 C82.522,34.828 82.260,34.758 82.027,34.625 L70.887,28.210 C70.538,28.009 70.283,27.677 70.179,27.290 C70.076,26.902 70.129,26.488 70.331,26.140 L71.846,23.523 C70.567,23.109 69.275,22.736 67.960,22.458 L67.960,25.507 C67.960,26.344 67.281,27.022 66.441,27.022 L53.578,27.022 C52.738,27.022 52.059,26.344 52.059,25.507 L52.059,22.460 C50.741,22.738 49.449,23.108 48.172,23.521 L49.689,26.140 C49.890,26.488 49.943,26.902 49.840,27.290 C49.736,27.677 49.481,28.009 49.132,28.210 L37.992,34.625 C37.759,34.758 37.497,34.828 37.233,34.828 C37.101,34.828 36.969,34.810 36.840,34.776 C36.451,34.673 36.119,34.418 35.917,34.070 L34.413,31.471 C33.416,32.365 32.474,33.314 31.568,34.297 L34.182,35.802 C34.908,36.220 35.158,37.147 34.738,37.871 L28.307,48.983 C28.106,49.331 27.773,49.585 27.385,49.688 C27.256,49.723 27.124,49.740 26.992,49.740 C26.727,49.740 26.465,49.671 26.232,49.537 L23.586,48.014 C23.169,49.290 22.844,50.593 22.564,51.902 L25.596,51.902 C26.436,51.902 27.115,52.579 27.115,53.417 L27.115,66.246 C27.115,67.084 26.436,67.761 25.596,67.761 L22.541,67.761 C22.819,69.074 23.191,70.364 23.605,71.640 L26.232,70.127 C26.582,69.926 26.996,69.872 27.385,69.976 C27.773,70.080 28.106,70.334 28.307,70.682 L34.738,81.792 C35.158,82.516 34.908,83.443 34.182,83.861 L31.576,85.362 C32.473,86.358 33.425,87.298 34.408,88.200 L35.917,85.594 C36.338,84.867 37.264,84.617 37.992,85.039 L49.132,91.453 C49.481,91.654 49.736,91.986 49.840,92.373 C49.943,92.761 49.890,93.175 49.689,93.523 L48.161,96.163 C49.440,96.579 50.745,96.902 52.059,97.181 L52.059,94.158 C52.059,93.320 52.738,92.643 53.578,92.643 L66.441,92.643 C67.281,92.643 67.960,93.320 67.960,94.158 L67.960,97.204 C69.275,96.927 70.569,96.556 71.847,96.143 L70.331,93.523 C70.129,93.175 70.076,92.761 70.179,92.373 C70.283,91.986 70.538,91.654 70.887,91.453 L82.027,85.039 C82.749,84.617 83.679,84.867 84.102,85.594 L85.606,88.193 C86.604,87.298 87.547,86.349 88.452,85.367 L85.838,83.861 C85.489,83.660 85.234,83.329 85.130,82.941 C85.026,82.554 85.080,82.139 85.281,81.792 L91.713,70.682 C92.131,69.954 93.061,69.708 93.788,70.127 L96.433,71.650 C96.850,70.376 97.175,69.073 97.455,67.761 L94.423,67.761 C93.584,67.761 92.904,67.084 92.904,66.246 L92.904,64.111 L73.817,64.111 L71.368,68.566 L74.285,69.958 C74.959,70.279 75.298,71.041 75.086,71.755 L73.641,76.632 C73.523,77.034 73.244,77.368 72.868,77.556 L66.455,80.786 C66.237,80.895 66.004,80.948 65.771,80.948 C65.318,80.948 64.873,80.746 64.578,80.371 L63.461,78.957 L56.553,78.957 L55.439,80.370 C54.988,80.938 54.204,81.107 53.562,80.786 L47.147,77.556 C46.772,77.368 46.493,77.034 46.374,76.632 L44.930,71.755 C44.718,71.041 45.057,70.279 45.731,69.958 L48.651,68.565 L46.196,64.101 C46.073,63.878 46.010,63.627 46.010,63.373 L46.010,56.292 C46.010,56.037 46.073,55.787 46.196,55.564 L48.651,51.099 L45.731,49.705 C45.057,49.383 44.718,48.622 44.930,47.908 L46.374,43.032 C46.493,42.631 46.772,42.297 47.147,42.109 L53.562,38.879 C54.202,38.555 54.988,38.727 55.439,39.295 L56.553,40.708 L63.461,40.708 L64.578,39.294 C65.023,38.725 65.813,38.554 66.455,38.879 L72.868,42.109 C73.244,42.297 73.523,42.631 73.641,43.032 L75.086,47.908 C75.298,48.622 74.959,49.383 74.285,49.705 L71.368,51.098 L73.816,55.552 L92.904,55.552 L92.904,53.417 C92.904,52.579 93.584,51.902 94.423,51.902 L97.477,51.902 C97.199,50.590 96.828,49.301 96.414,48.026 L93.788,49.537 C93.555,49.671 93.293,49.740 93.029,49.740 C92.897,49.740 92.765,49.723 92.636,49.688 C92.247,49.585 91.915,49.331 91.713,48.983 L85.281,37.871 C84.862,37.147 85.111,36.220 85.838,35.802 L88.443,34.301 C87.548,33.307 86.596,32.367 85.611,31.463 ZM92.904,61.081 L92.904,58.582 L74.009,58.582 L74.009,61.081 L92.904,61.081 ZM50.114,48.438 L50.645,47.472 C50.692,47.388 50.760,47.324 50.819,47.252 C50.859,47.204 50.889,47.151 50.934,47.108 C51.066,46.982 51.215,46.878 51.381,46.807 C51.395,46.801 51.411,46.801 51.426,46.796 C51.585,46.733 51.753,46.701 51.926,46.695 C51.944,46.695 51.959,46.685 51.977,46.685 L56.779,46.685 C57.618,46.685 58.298,47.363 58.298,48.200 L58.298,49.825 L61.721,49.825 L61.721,48.200 C61.721,47.363 62.401,46.685 63.240,46.685 L68.043,46.685 C68.062,46.685 68.078,46.695 68.096,46.696 C68.263,46.702 68.425,46.734 68.579,46.793 C68.599,46.800 68.622,46.800 68.641,46.808 C68.806,46.879 68.955,46.983 69.087,47.108 C69.132,47.151 69.161,47.204 69.201,47.252 C69.261,47.324 69.329,47.388 69.375,47.472 L69.905,48.436 L71.807,47.528 L70.914,44.519 L66.195,42.143 L65.391,43.161 C65.103,43.525 64.664,43.738 64.198,43.738 L55.816,43.738 C55.350,43.738 54.910,43.525 54.622,43.159 L53.819,42.143 L49.102,44.519 L48.209,47.528 L50.114,48.438 ZM49.048,56.680 L49.048,62.985 L50.458,65.551 L50.458,54.114 L49.048,56.680 ZM55.260,68.304 L55.260,49.715 L53.496,49.715 L53.496,69.949 L55.260,69.949 L55.260,68.345 C55.260,68.338 55.256,68.332 55.256,68.325 C55.256,68.317 55.260,68.312 55.260,68.304 ZM66.524,49.715 L64.759,49.715 L64.759,69.949 L66.524,69.949 L66.524,49.715 ZM61.721,52.855 L58.298,52.855 L58.298,66.810 L61.721,66.810 L61.721,52.855 ZM70.971,62.596 L70.971,57.067 L70.971,56.680 L69.562,54.115 L69.562,65.549 L70.971,62.985 L70.971,62.596 ZM69.905,71.228 L69.375,72.192 C69.306,72.319 69.220,72.431 69.122,72.530 C69.112,72.540 69.100,72.545 69.090,72.555 C68.973,72.666 68.838,72.752 68.694,72.821 C68.652,72.841 68.610,72.858 68.566,72.874 C68.399,72.936 68.225,72.980 68.043,72.980 L63.240,72.980 C62.401,72.980 61.721,72.302 61.721,71.465 L61.721,69.840 L58.298,69.840 L58.298,71.465 C58.298,72.302 57.618,72.980 56.779,72.980 L51.977,72.980 C51.796,72.980 51.622,72.936 51.455,72.874 C51.410,72.858 51.369,72.841 51.326,72.820 C51.183,72.752 51.049,72.667 50.932,72.556 C50.922,72.546 50.909,72.540 50.898,72.529 C50.801,72.431 50.715,72.319 50.645,72.192 L50.114,71.226 L48.209,72.135 L49.102,75.145 L53.819,77.522 L54.622,76.505 C54.910,76.140 55.350,75.927 55.816,75.927 L64.198,75.927 C64.664,75.927 65.103,76.140 65.391,76.504 L66.195,77.522 L70.914,75.145 L71.807,72.135 L69.905,71.228 ZM111.795,35.669 L106.882,27.182 L88.672,37.669 L93.585,46.155 L111.795,35.669 ZM116.970,54.932 L95.942,54.932 L95.942,57.067 L95.942,62.596 L95.942,64.731 L116.970,64.731 L116.970,54.932 ZM100.186,58.317 L112.726,58.317 C113.566,58.317 114.245,58.995 114.245,59.832 C114.245,60.670 113.566,61.347 112.726,61.347 L100.186,61.347 C99.346,61.347 98.667,60.670 98.667,59.832 C98.667,58.995 99.346,58.317 100.186,58.317 ZM60.010,5.736 C60.849,5.736 61.528,6.414 61.528,7.251 L61.528,19.759 C61.528,20.596 60.849,21.274 60.010,21.274 C59.170,21.274 58.490,20.596 58.490,19.759 L58.490,7.251 C58.490,6.414 59.170,5.736 60.010,5.736 ZM19.833,61.347 L7.293,61.347 C6.453,61.347 5.774,60.670 5.774,59.832 C5.774,58.995 6.453,58.317 7.293,58.317 L19.833,58.317 C20.673,58.317 21.352,58.995 21.352,59.832 C21.352,60.670 20.673,61.347 19.833,61.347 ZM60.010,113.929 C59.170,113.929 58.490,113.251 58.490,112.414 L58.490,99.906 C58.490,99.068 59.170,98.390 60.010,98.390 C60.849,98.390 61.528,99.068 61.528,99.906 L61.528,112.414 C61.528,113.251 60.849,113.929 60.010,113.929 Z" class="cls-1"/>
</svg>
