<svg xmlns="http://www.w3.org/2000/svg" xmlns:xlink="http://www.w3.org/1999/xlink" preserveAspectRatio="xMidYMid" width="125" height="122" viewBox="0 0 125 122">
  <defs>
    <style>
      .cls-1 {
        fill: #de4f4f;
        fill-rule: evenodd;
      }
    </style>
  </defs>
  <path d="M123.689,80.993 C122.720,82.029 121.609,82.384 120.577,82.384 C119.370,82.384 118.273,81.899 117.640,81.455 L117.444,81.284 L61.467,21.242 L63.224,19.486 L124.156,75.222 L124.232,75.326 C124.946,76.321 125.752,78.785 123.689,80.993 ZM122.253,76.849 L84.591,42.398 L119.168,79.487 C119.582,79.742 120.859,80.378 121.864,79.305 C122.880,78.216 122.455,77.202 122.253,76.849 ZM118.021,63.163 C117.278,63.163 116.607,62.884 116.219,62.626 L115.996,62.437 L90.626,35.141 L92.382,33.384 L120.310,58.790 C120.786,59.416 121.331,60.963 119.986,62.326 C119.371,62.951 118.668,63.163 118.021,63.163 ZM112.495,55.018 L117.695,60.613 C117.831,60.675 118.058,60.740 118.207,60.590 C118.319,60.476 118.356,60.404 118.330,60.320 L112.495,55.018 ZM122.311,90.318 C123.246,91.618 124.295,94.845 121.579,97.752 C120.313,99.107 118.858,99.571 117.504,99.571 C115.911,99.571 114.459,98.929 113.622,98.341 L113.426,98.171 L33.305,12.229 L35.062,10.473 L122.236,90.214 L122.311,90.318 ZM120.344,91.850 L56.427,33.384 L115.153,96.378 C115.695,96.718 117.975,97.970 119.754,96.064 C121.566,94.124 120.609,92.279 120.344,91.850 ZM114.089,104.780 C115.024,106.081 116.071,109.307 113.355,112.216 C112.091,113.571 110.636,114.034 109.283,114.034 C107.690,114.034 106.237,113.391 105.400,112.804 L105.211,112.642 L-0.002,1.756 L1.756,0.000 L114.017,104.681 L114.089,104.780 ZM112.114,106.305 L29.769,29.519 L106.927,110.837 C107.461,111.176 109.745,112.438 111.530,110.528 C113.325,108.606 112.398,106.767 112.114,106.305 ZM98.832,112.642 L98.908,112.746 C99.842,114.046 100.891,117.273 98.175,120.181 C96.909,121.536 95.455,122.000 94.102,122.000 C92.508,122.000 91.055,121.357 90.219,120.770 L90.023,120.599 L9.901,34.658 L11.658,32.901 L98.832,112.642 ZM91.750,118.806 C92.294,119.149 94.570,120.396 96.350,118.493 C98.162,116.553 97.205,114.708 96.940,114.279 L33.025,55.814 L91.750,118.806 ZM80.300,114.630 L80.376,114.734 C81.090,115.728 81.896,118.191 79.833,120.400 C78.864,121.437 77.753,121.791 76.721,121.791 C75.515,121.791 74.417,121.306 73.784,120.863 L73.588,120.692 L17.611,60.650 L19.368,58.894 L80.300,114.630 ZM75.312,118.895 C75.727,119.150 77.003,119.787 78.008,118.713 C79.024,117.624 78.599,116.608 78.397,116.257 L40.735,81.806 L75.312,118.895 ZM61.301,114.942 C61.777,115.569 62.322,117.115 60.978,118.479 C60.362,119.102 59.660,119.316 59.013,119.316 C58.269,119.316 57.598,119.036 57.210,118.779 L56.988,118.589 L31.617,91.294 L33.373,89.537 L61.301,114.942 ZM58.686,116.765 C58.821,116.825 59.049,116.894 59.199,116.743 C59.319,116.620 59.343,116.538 59.334,116.484 L53.489,111.173 L58.686,116.765 Z" class="cls-1"/>
</svg>
