<svg xmlns="http://www.w3.org/2000/svg" xmlns:xlink="http://www.w3.org/1999/xlink" preserveAspectRatio="xMidYMid" width="131" height="83" viewBox="0 0 131 83">
  <defs>
    <style>
      .cls-1 {
        fill: #de4f4f;
        fill-rule: evenodd;
      }
    </style>
  </defs>
  <path d="M117.564,82.990 L18.480,82.990 C8.118,82.990 0.001,75.051 0.001,64.915 C0.001,57.872 4.128,51.606 10.629,48.596 C10.263,46.358 10.077,44.089 10.077,41.835 C10.077,18.766 28.914,-0.001 52.068,-0.001 C72.178,-0.001 89.256,13.991 93.207,33.471 C106.113,33.890 116.594,44.030 117.502,56.878 C117.523,56.878 117.543,56.878 117.564,56.878 C125.101,56.878 131.004,62.613 131.004,69.934 C131.004,77.255 125.101,82.990 117.564,82.990 ZM117.564,60.250 C117.132,60.250 116.673,60.287 116.120,60.366 L114.199,60.510 L114.199,58.564 C114.199,46.579 104.407,36.829 92.373,36.829 L90.387,36.882 L90.144,35.438 C87.021,16.858 71.008,3.372 52.068,3.372 C30.773,3.372 13.448,20.626 13.448,41.835 C13.448,44.327 13.694,46.839 14.180,49.301 L14.457,50.700 L13.123,51.205 C7.108,53.480 3.372,58.733 3.372,64.915 C3.372,73.159 10.008,79.617 18.480,79.617 L117.564,79.617 C123.210,79.617 127.633,75.364 127.633,69.934 C127.633,64.504 123.210,60.250 117.564,60.250 ZM53.500,29.888 L53.500,61.451 L50.823,61.451 L50.823,29.888 L34.724,45.988 L32.831,44.095 L50.823,26.103 L50.823,25.765 L51.161,25.765 L51.757,25.170 L52.162,25.575 L52.567,25.170 L53.162,25.765 L53.500,25.765 L53.500,26.103 L71.492,44.095 L69.600,45.988 L53.500,29.888 Z" class="cls-1"/>
</svg>
