<svg xmlns="http://www.w3.org/2000/svg" xmlns:xlink="http://www.w3.org/1999/xlink" preserveAspectRatio="xMidYMid" width="137" height="39" viewBox="0 0 137 39">
  <defs>
    <style>
      .cls-1 {
        fill: #fff;
        filter: url(#color-overlay-1);
        fill-rule: evenodd;
      }
    </style>

    <filter id="color-overlay-1" filterUnits="userSpaceOnUse">
      <feFlood flood-color="#de4f4f"/>
      <feComposite operator="in" in2="SourceGraphic"/>
      <feBlend in2="SourceGraphic" result="solidFill"/>
    </filter>
  </defs>
  <path d="M132.562,28.367 L123.096,16.920 L123.096,28.367 L118.661,28.367 L118.661,10.099 L122.812,10.099 L132.562,21.859 L132.562,10.099 L136.996,10.099 L136.996,28.367 L132.562,28.367 ZM110.191,10.099 L114.625,10.099 L114.625,28.367 L110.191,28.367 L110.191,10.099 ZM101.720,16.868 L96.348,26.850 L93.704,26.850 L88.360,16.868 L88.360,28.367 L83.926,28.367 L83.926,10.099 L89.923,10.099 L95.040,20.135 L100.185,10.099 L106.155,10.099 L106.155,28.367 L101.720,28.367 L101.720,16.868 ZM71.674,28.549 C69.191,28.549 67.150,27.835 65.548,26.406 C63.947,24.978 63.147,22.948 63.147,20.317 L63.147,10.099 L67.581,10.099 L67.581,20.187 C67.581,21.651 67.950,22.804 68.689,23.650 C69.429,24.495 70.424,24.917 71.674,24.917 C72.925,24.917 73.915,24.495 74.645,23.650 C75.374,22.804 75.739,21.651 75.739,20.187 L75.739,10.099 L80.174,10.099 L80.174,20.317 C80.174,22.966 79.378,25.000 77.786,26.420 C76.194,27.840 74.157,28.549 71.674,28.549 ZM48.564,10.099 L52.999,10.099 L52.999,24.734 L61.470,24.734 L61.470,28.367 L48.564,28.367 L48.564,10.099 ZM18.925,37.324 C16.764,37.324 14.689,36.966 12.755,36.309 L15.403,33.942 C16.571,34.211 17.789,34.353 19.040,34.353 C27.850,34.353 34.991,27.311 34.991,18.624 C34.991,13.369 32.378,8.718 28.363,5.860 L29.252,3.022 C34.428,6.353 37.849,12.113 37.849,18.662 C37.849,28.968 29.376,37.324 18.925,37.324 ZM31.670,16.758 L8.342,39.000 L14.676,22.319 L6.257,22.319 L29.043,0.152 L23.250,16.758 L31.670,16.758 ZM19.040,2.895 C10.231,2.895 3.090,9.937 3.090,18.624 C3.090,23.957 5.783,28.671 9.900,31.515 L8.813,34.439 C3.516,31.131 0.000,25.302 0.000,18.662 C0.000,8.355 8.473,0.000 18.925,0.000 C21.470,0.000 23.898,0.497 26.115,1.396 L23.698,3.577 C22.224,3.133 20.661,2.895 19.040,2.895 Z" class="cls-1"/>
</svg>
